HIERARCHY
ROOT Hips
{
	OFFSET -3.958830 18.904000 13.208200
	CHANNELS 6 Xposition Yposition Zposition Zrotation Yrotation Xrotation 
	JOINT LHipJoint
	{
		OFFSET 0.000000 0.000000 0.000000
		CHANNELS 3 Zrotation Yrotation Xrotation
		JOINT LeftUpLeg
		{
			OFFSET 1.800000 -1.400000 0.085000
			CHANNELS 3 Zrotation Yrotation Xrotation
			JOINT LeftLeg
			{
				OFFSET 2.215000 -6.000000 0.000000
				CHANNELS 3 Zrotation Yrotation Xrotation
				JOINT LeftFoot
				{
					OFFSET 2.500000 -6.900000 0.000000
					CHANNELS 3 Zrotation Yrotation Xrotation
					JOINT LeftToeBase
					{
						OFFSET 0.200000 -0.500000 1.950000
						CHANNELS 3 Zrotation Yrotation Xrotation
						End Site
						{
							OFFSET 0.000000 0.000000 0.000000
						}
					}
				}
			}
		}
	}
	JOINT RHipJoint
	{
		OFFSET 0.000000 0.000000 0.000000
		CHANNELS 3 Zrotation Yrotation Xrotation
		JOINT RightUpLeg
		{
			OFFSET -1.800000 -1.400000 0.085000
			CHANNELS 3 Zrotation Yrotation Xrotation
			JOINT RightLeg
			{
				OFFSET -2.215000 -6.000000 0.000000
				CHANNELS 3 Zrotation Yrotation Xrotation
				JOINT RightFoot
				{
					OFFSET -2.500000 -6.900000 0.000000
					CHANNELS 3 Zrotation Yrotation Xrotation
					JOINT RightToeBase
					{
						OFFSET -0.200000 -0.500000 1.950000
						CHANNELS 3 Zrotation Yrotation Xrotation
						End Site
						{
							OFFSET 0.000000 0.000000 0.000000
						}
					}
				}
			}
		}
	}
	JOINT LowerBack
	{
		OFFSET 0.000000 0.000000 0.000000
		CHANNELS 3 Zrotation Yrotation Xrotation
		JOINT Spine
		{
			OFFSET -0.087000 1.940000 -0.288900
			CHANNELS 3 Zrotation Yrotation Xrotation
			JOINT Spine1
			{
				OFFSET 0.000000 1.950000 0.060000
				CHANNELS 3 Zrotation Yrotation Xrotation
				JOINT Neck
				{
					OFFSET 0.000000 0.000000 0.000000
					CHANNELS 3 Zrotation Yrotation Xrotation
					JOINT Neck1
					{
						OFFSET 0.000000 1.600000 0.340000
						CHANNELS 3 Zrotation Yrotation Xrotation
						JOINT Head
						{
							OFFSET 0.000000 1.667000 -0.240000
							CHANNELS 3 Zrotation Yrotation Xrotation
							End Site
							{
								OFFSET 0.000000 0.000000 0.000000
							}
						}
					}
				}
				JOINT LeftShoulder
				{
					OFFSET 0.000000 0.000000 0.000000
					CHANNELS 3 Zrotation Yrotation Xrotation
					JOINT LeftArm
					{
						OFFSET 2.700000 1.550000 -0.730000
						CHANNELS 3 Zrotation Yrotation Xrotation
						JOINT LeftForeArm
						{
							OFFSET 5.450000 0.000000 0.000000
							CHANNELS 3 Zrotation Yrotation Xrotation
							JOINT LeftHand
							{
								OFFSET 3.450000 0.000000 0.000000
								CHANNELS 3 Zrotation Yrotation Xrotation
								JOINT LeftHandIndex1
								{
									OFFSET 0.750000 0.000000 0.000000
									CHANNELS 3 Zrotation Yrotation Xrotation
									End Site
									{
										OFFSET 0.000000 0.000000 0.000000
									}
								}
							}
						}
					}
				}
				JOINT RightShoulder
				{
					OFFSET 0.000000 0.000000 0.000000
					CHANNELS 3 Zrotation Yrotation Xrotation
					JOINT RightArm
					{
						OFFSET -2.700000 1.550000 -0.730000
						CHANNELS 3 Zrotation Yrotation Xrotation
						JOINT RightForeArm
						{
							OFFSET -5.450000 0.000000 0.000000
							CHANNELS 3 Zrotation Yrotation Xrotation
							JOINT RightHand
							{
								OFFSET -3.450000 0.000000 0.000000
								CHANNELS 3 Zrotation Yrotation Xrotation
								JOINT RightHandIndex1
								{
									OFFSET -0.750000 0.000000 0.000000
									CHANNELS 3 Zrotation Yrotation Xrotation
									End Site
									{
										OFFSET 0.000000 0.000000 0.000000
									}
								}
							}
						}
					}
				}
			}
		}
	}
}
MOTION
Frames: 5
Frame Time: 0.016667
-4.783730 16.998210 -1.717460 -5.640853 -12.935642 -11.734385 -15.943860 12.230466 1.282080 38.536063 14.297696 -4.553442 21.665332 5.397385 15.743901 0.242521 7.241611 2.399629 0.101450 -0.175020 -0.533210 17.998721 -8.241989 5.449075 -41.873281 15.990736 -18.687107 51.703776 -9.827943 12.638261 -1.621577 -8.538938 1.129342 -0.215740 1.157150 0.769920 -2.239825 -1.114826 -8.194962 -10.022553 8.515770 19.865944 1.608120 12.355224 23.303495 7.487980 -9.187212 -15.673461 -10.711540 6.392613 52.672468 20.003730 -8.931390 -13.166600 7.297895 -26.235515 16.711045 -60.818285 7.108151 -15.432866 -22.549355 -20.486731 -2.512451 -3.366133 3.215081 0.918380 0.174810 0.218290 0.697910 -17.476394 45.239057 -3.157388 -0.524590 43.362305 -17.865648 -100.455695 68.244079 -60.199387 2.946856 0.735866 -0.250890 0.499420 0.279370 0.485260 
-4.897590 17.017770 -1.714940 -5.297850 -15.458987 -12.222279 -16.063988 12.487537 1.246561 39.315766 15.292292 -2.076596 20.687066 5.805002 15.612815 0.342341 7.336534 2.418452 0.122070 -0.086570 -0.561040 17.888801 -8.063386 5.279354 -40.597532 16.764451 -18.429869 50.312668 -9.325206 13.069190 -1.606807 -8.412412 1.207757 -0.183880 1.155770 0.772670 -1.931134 -1.766087 -7.951399 -12.048669 9.181801 18.697006 3.076818 12.561853 24.401400 8.029547 -10.419266 -16.308032 -13.881967 8.130998 51.918478 19.303850 -7.871830 -14.142970 6.617784 -24.170006 15.994879 -63.177434 7.485355 -16.231178 -21.704679 -19.622629 -2.779205 -3.362587 3.168621 0.897370 0.183480 0.262870 0.738130 -17.699271 45.052101 -1.807707 -8.065057 44.727283 -19.840579 -98.918838 65.777664 -57.910547 2.749886 0.537336 -0.219720 0.522800 0.238920 0.525360 
-5.181580 17.031750 -1.680870 -4.816949 -17.421712 -11.798081 -16.088791 12.667685 1.062084 38.957500 15.806442 -0.095014 19.721964 5.959613 15.598864 0.623166 7.148596 2.543624 0.129900 0.067960 -0.653920 17.864151 -8.093223 5.205286 -39.608250 16.785911 -18.539117 48.699184 -8.611493 12.675934 -1.564636 -8.291479 1.347451 -0.185620 1.167240 0.836050 -1.872025 -1.912807 -7.653275 -14.368968 9.018171 15.387102 3.891182 11.945614 25.809312 8.945247 -11.045206 -18.148833 -15.304926 10.143555 51.488316 15.713750 -5.895990 -8.978120 7.089356 -22.170560 16.286811 -65.784861 11.414097 -19.863453 -25.564932 -21.134949 -2.650956 -3.275471 3.299935 0.701110 0.269870 0.332100 0.865120 -19.337559 43.899783 0.625490 -16.591130 46.472596 -23.261399 -99.409596 59.762331 -54.987392 2.784857 0.067368 -0.060800 0.433930 0.101470 0.675160 
-5.492240 17.031480 -1.621350 -4.938546 -17.587916 -12.260566 -16.127968 12.783529 0.944748 38.984799 15.981280 1.089588 19.024091 6.156831 16.024048 0.706994 7.206787 2.629596 0.054170 0.046820 -0.804090 17.847434 -7.853791 5.201001 -39.002330 16.545668 -15.911826 50.076108 -7.921430 10.766496 -1.517482 -8.417469 1.426557 -0.168040 1.320800 0.726630 -1.821884 -2.504713 -7.478413 -16.646415 7.742093 13.256338 6.686839 10.126129 28.338141 8.514753 -13.136826 -19.174048 -19.521835 12.215510 47.609049 16.169490 -6.679310 -5.710100 9.895031 -17.653423 14.949210 -73.630322 12.446622 -23.708737 -24.688485 -22.042921 -2.948037 -3.206034 3.350451 0.581500 0.347240 0.203460 0.950830 -20.576812 42.399016 3.654773 -24.538270 47.914463 -26.321571 -101.763915 54.260186 -54.849454 2.681374 -0.213812 -0.132630 0.521100 0.077090 0.760200 
-5.781280 17.057190 -1.594720 -5.353724 -17.278765 -13.384508 -16.140729 12.854101 0.905062 39.087343 15.985117 2.117964 17.846434 6.427136 16.664220 0.681183 7.331117 2.613241 -0.091070 -0.118600 -0.891940 17.812036 -7.722188 5.289265 -38.106509 16.983501 -12.554437 52.508005 -7.418458 9.059508 -1.593663 -8.512773 1.425285 -0.257870 1.387450 0.703590 -1.742654 -2.790011 -7.548074 -15.994355 7.447473 14.369237 5.580203 10.196581 29.111768 8.779273 -13.353887 -19.687286 -20.770204 12.673461 47.242358 17.180680 -6.767860 -6.801000 9.165106 -16.253198 15.454313 -74.895763 15.399153 -27.853574 -29.550264 -28.547508 -1.965422 -3.147139 3.328958 0.638880 0.360130 0.182470 0.891110 -20.301942 41.189238 5.168949 -28.121103 46.794294 -26.773947 -106.109210 50.562998 -56.893579 2.570302 -0.177058 -0.198990 0.609950 0.209150 0.733700 
